HIERARCHY
ROOT SpineBase
{
  OFFSET 0.000000 0.000000 0.000000
  CHANNELS 6 Xposition Yposition Zposition Zrotation Xrotation Yrotation
  JOINT SpineMid
  {
    OFFSET -0.000000 30.454130 0.000000
    CHANNELS 3 Zrotation Xrotation Yrotation
    JOINT SpineShoulder
    {
      OFFSET 0.197505 22.531164 -0.923681
      CHANNELS 3 Zrotation Xrotation Yrotation
      JOINT Neck
      {
        OFFSET 0.090055 7.469040 -0.686927
        CHANNELS 3 Zrotation Xrotation Yrotation
        JOINT Head
        {
          OFFSET -2.473116 13.743206 -2.602277
          CHANNELS 3 Zrotation Xrotation Yrotation
          End Site
          {
            OFFSET 0 0 0
          }
        }
      }
      JOINT ShoulderLeft
      {
        OFFSET -17.850196 -2.916414 3.727071
        CHANNELS 3 Zrotation Xrotation Yrotation
        JOINT ElbowLeft
        {
          OFFSET -1.269250 -24.250061 1.929911
          CHANNELS 3 Zrotation Xrotation Yrotation
          JOINT WristLeft
          {
            OFFSET 1.802212 -20.035350 -6.360300
            CHANNELS 3 Zrotation Xrotation Yrotation
            JOINT HandLeft
            {
              OFFSET 3.041577 -6.177498 -2.712837
              CHANNELS 3 Zrotation Xrotation Yrotation
              JOINT HandTipLeft
              {
                OFFSET 0.557989 -6.046463 -2.957917
                CHANNELS 3 Zrotation Xrotation Yrotation
                End Site
                {
                  OFFSET 0 0 0
                }
              }
              JOINT ThumbLeft
              {
                OFFSET 4.239985 3.426716 -4.361934
                CHANNELS 3 Zrotation Xrotation Yrotation
                End Site
                {
                  OFFSET 0 0 0
                }
              }
            }
          }
        }
      }
      JOINT ShoulderRight
      {
        OFFSET 15.963617 -2.299403 -6.026746
        CHANNELS 3 Zrotation Xrotation Yrotation
        JOINT ElbowRight
        {
          OFFSET 5.794539 -23.964573 -1.772747
          CHANNELS 3 Zrotation Xrotation Yrotation
          JOINT WristRight
          {
            OFFSET -3.971447 -18.958783 -6.015342
            CHANNELS 3 Zrotation Xrotation Yrotation
            JOINT HandRight
            {
              OFFSET -3.486302 -7.164807 -1.494525
              CHANNELS 3 Zrotation Xrotation Yrotation
              JOINT HandTipRight
              {
                OFFSET -1.899175 -7.181731 -1.849922
                CHANNELS 3 Zrotation Xrotation Yrotation
                End Site
                {
                  OFFSET 0 0 0
                }
              }
              JOINT ThumbRight
              {
                OFFSET 3.550561 -0.353337 0.903566
                CHANNELS 3 Zrotation Xrotation Yrotation
                End Site
                {
                  OFFSET 0 0 0
                }
              }
            }
          }
        }
      }
    }
  }
  JOINT HipLeft
  {
    OFFSET -7.058375 0.112028 -1.816385
    CHANNELS 3 Zrotation Xrotation Yrotation
    JOINT KneeLeft
    {
      OFFSET 1.851118 -34.649637 5.526025
      CHANNELS 3 Zrotation Xrotation Yrotation
      JOINT AnkleLeft
      {
        OFFSET 5.203472 -33.680602 10.298046
        CHANNELS 3 Zrotation Xrotation Yrotation
        JOINT FootLeft
        {
          OFFSET -2.555853 -3.898245 -13.276507
          CHANNELS 3 Zrotation Xrotation Yrotation
          End Site
          {
            OFFSET 0 0 0
          }
        }
      }
    }
  }
  JOINT HipRight
  {
    OFFSET 7.698307 1.323030 -5.404622
    CHANNELS 3 Zrotation Xrotation Yrotation
    JOINT KneeRight
    {
      OFFSET 6.190716 -32.378276 -4.917581
      CHANNELS 3 Zrotation Xrotation Yrotation
      JOINT AnkleRight
      {
        OFFSET 4.572587 -37.217325 11.361840
        CHANNELS 3 Zrotation Xrotation Yrotation
        JOINT FootRight
        {
          OFFSET -1.946971 -6.491894 -8.064244
          CHANNELS 3 Zrotation Xrotation Yrotation
          End Site
          {
            OFFSET 0 0 0
          }
        }
      }
    }
  }
}
MOTION
Frames: 13
Frame Time: 0.033333
-31.198063 77.035291 360.902335 -3.174917 -0.640298 22.637308 1.214633 0.231864 -22.732605 0.287965 0.394264 -0.081154 -6.006249 5.615391 0.144064 0.000000 0.000000 0.000000 -0.750770 -0.125336 -0.053340 -0.678946 -5.929500 0.603161 -13.482886 -4.495765 2.105595 11.952489 1.644311 -1.844531 0.000000 0.000000 0.000000 0.000000 0.000000 0.000000 -3.303201 5.845794 2.344901 17.215973 -17.044345 -0.869633 -16.278896 -11.983556 14.729931 20.031748 11.139896 -18.037151 0.000000 0.000000 0.000000 0.000000 0.000000 0.000000 2.818118 -4.031387 -22.671030 -3.304593 0.294823 -1.046982 0.311431 2.070051 8.623392 0.000000 0.000000 0.000000 0.271316 -8.018826 -24.419871 -1.526629 8.235409 1.452959 -8.898125 19.492807 6.735322 0.000000 0.000000 0.000000
-32.228626 76.858709 361.307649 -2.983707 -0.197654 23.386817 1.401834 0.286563 -23.455851 0.397493 0.592709 -0.055498 -9.237686 5.260067 -0.326247 0.000000 0.000000 0.000000 -1.395538 -0.060167 -0.155534 0.284992 -6.272592 0.501874 -16.487801 -4.575024 3.717707 15.832701 -1.131252 -4.638169 0.000000 0.000000 0.000000 0.000000 0.000000 0.000000 -3.545280 8.882772 3.320398 19.119913 -20.505564 -1.070606 -14.869642 0.429883 8.270379 12.654022 -8.421468 -3.535050 0.000000 0.000000 0.000000 0.000000 0.000000 0.000000 2.914751 -4.749197 -23.293225 -3.382000 0.945273 -0.882622 -0.390719 1.528333 9.083595 0.000000 0.000000 0.000000 1.433242 -8.102712 -25.076983 -2.535200 7.190924 1.594528 -10.591287 21.740457 7.718487 0.000000 0.000000 0.000000
-33.339245 76.685209 361.737037 -2.708392 0.843194 23.757324 1.654067 0.677842 -23.786479 0.389712 0.738747 -0.040747 -10.810868 4.813525 -0.528349 0.000000 0.000000 0.000000 -1.996108 -0.220706 -0.305663 1.077012 -6.761933 0.568953 -17.824069 -4.400826 4.766909 19.284785 -3.770740 -7.252728 0.000000 0.000000 0.000000 0.000000 0.000000 0.000000 -2.724651 13.528763 4.777520 16.769126 -28.820233 -0.216684 -6.591982 -0.134132 7.122384 7.603575 -16.549245 0.416218 0.000000 0.000000 0.000000 0.000000 0.000000 0.000000 2.790697 -5.875222 -23.490161 -3.547498 1.292542 -0.784835 -1.909358 2.764900 10.958782 0.000000 0.000000 0.000000 2.344850 -8.802082 -25.342400 -3.168111 6.181408 1.829943 -10.331947 19.289194 7.089543 0.000000 0.000000 0.000000
-34.347279 76.556580 362.130138 -2.554158 2.142624 23.710266 1.689354 1.025651 -23.711476 0.411665 0.960232 -0.036546 -10.370508 5.274665 -0.118933 0.000000 0.000000 0.000000 -2.083124 -0.032020 -0.429567 1.388951 -7.724471 0.720574 -17.799933 -3.639695 5.540105 21.265246 -7.397174 -9.195860 0.000000 0.000000 0.000000 0.000000 0.000000 0.000000 -1.079586 21.695554 7.065996 13.980329 -43.066903 1.021879 -5.491765 9.982918 2.227963 6.344041 -21.960219 5.439624 0.000000 0.000000 0.000000 0.000000 0.000000 0.000000 2.619290 -7.076521 -23.274353 -3.606058 1.214878 -0.741989 -0.980432 1.186281 7.814360 0.000000 0.000000 0.000000 2.815719 -9.840044 -25.178437 -4.138361 5.625703 1.907486 -9.249338 17.207345 6.359772 0.000000 0.000000 0.000000
-35.330949 76.536880 362.514976 -2.299540 3.997676 23.202592 1.805899 1.454254 -23.168758 0.170764 0.866747 -0.059701 -8.210391 6.389041 0.874991 0.000000 0.000000 0.000000 -1.823813 0.413901 -0.534755 1.520784 -8.681119 0.937211 -16.578717 -2.713418 5.931214 21.775657 -11.400133 -10.396705 0.000000 0.000000 0.000000 0.000000 0.000000 0.000000 -1.108183 26.252531 8.859912 12.943291 -48.267357 0.143583 -1.329344 18.403545 -5.362648 4.963916 -32.995787 15.180053 0.000000 0.000000 0.000000 0.000000 0.000000 0.000000 2.303990 -8.555380 -22.555027 -3.716258 0.651260 -0.772989 -0.137750 0.146291 4.578167 0.000000 0.000000 0.000000 2.813396 -11.337588 -24.523361 -4.326418 5.866064 2.161450 -8.458036 15.209444 4.885522 0.000000 0.000000 0.000000
-36.189534 76.642215 362.890251 -2.023714 6.044113 22.193578 1.748284 1.828181 -22.142279 -0.162751 0.619379 -0.111611 -4.451050 8.424046 2.464360 0.000000 0.000000 0.000000 -1.284168 1.056633 -0.587504 1.315529 -9.450736 1.218347 -13.622702 -2.227721 5.306233 19.550607 -12.418390 -9.833310 0.000000 0.000000 0.000000 0.000000 0.000000 0.000000 -2.381548 28.048079 10.326115 14.758584 -46.565670 -1.229363 4.254906 23.354755 -13.310962 12.243734 -39.996391 26.592642 0.000000 0.000000 0.000000 0.000000 0.000000 0.000000 2.051417 -9.997922 -21.316472 -3.893161 -0.321177 -0.874782 0.660425 -0.309179 1.331771 0.000000 0.000000 0.000000 2.564423 -12.927903 -23.350438 -4.320047 5.867673 2.310533 -7.408459 14.307976 3.121683 0.000000 0.000000 0.000000
-36.798710 76.823433 363.123049 -1.410200 8.102838 20.943129 1.761757 2.102062 -20.894923 -0.341233 0.439865 -0.127713 -2.221351 10.387600 3.763626 0.000000 0.000000 0.000000 -1.426600 1.139280 -0.735085 1.627794 -8.948700 1.483641 -12.215845 -3.646190 4.458738 18.718679 -12.210786 -9.558620 0.000000 0.000000 0.000000 0.000000 0.000000 0.000000 -2.517843 27.105015 10.444786 16.069700 -39.283286 -3.577080 5.455801 25.560852 -17.986148 15.239664 -38.693965 30.794829 0.000000 0.000000 0.000000 0.000000 0.000000 0.000000 1.212171 -11.483357 -19.996573 -3.708990 -0.961320 -0.876305 0.969786 -0.560761 -0.797872 0.000000 0.000000 0.000000 1.603535 -14.422736 -22.040413 -3.857348 6.044227 2.410384 -6.979572 13.919045 1.951065 0.000000 0.000000 0.000000
-37.096256 77.067069 363.227012 -0.617388 10.032139 19.559452 1.617746 2.173693 -19.555405 -0.419774 0.310366 -0.121752 0.639938 12.793685 5.218407 0.000000 0.000000 0.000000 -1.257911 1.561297 -0.833116 1.615344 -8.370807 1.632346 -10.974800 -5.041069 3.843467 17.397192 -12.206403 -9.181378 0.000000 0.000000 0.000000 0.000000 0.000000 0.000000 -2.111831 24.083805 9.696968 16.933220 -27.603193 -6.965651 5.393531 20.706289 -17.375168 17.921861 -25.459226 26.011622 0.000000 0.000000 0.000000 0.000000 0.000000 0.000000 -0.015301 -12.923464 -18.729831 -3.290977 -1.352786 -0.826368 0.961220 -0.478732 -1.797452 0.000000 0.000000 0.000000 0.072443 -15.853777 -20.759532 -2.996489 6.455310 2.455919 -7.013546 14.133324 1.266771 0.000000 0.000000 0.000000
-37.454144 77.261458 363.421465 0.241557 11.747891 18.813986 1.256321 1.932668 -18.896868 -0.459064 0.149068 -0.107443 3.022137 14.705793 6.310487 0.000000 0.000000 0.000000 -0.944237 2.156804 -0.881592 1.635191 -7.569472 1.684615 -9.966717 -6.739276 3.189903 15.244207 -10.429940 -8.273186 0.000000 0.000000 0.000000 0.000000 0.000000 0.000000 -2.725128 20.263396 8.823845 20.047943 -15.945380 -9.796725 3.011829 13.211906 -13.914888 21.968805 -18.738577 24.025189 0.000000 0.000000 0.000000 0.000000 0.000000 0.000000 -0.892367 -14.057456 -18.018700 -3.306009 -1.934939 -0.854133 0.631379 -0.030019 -1.610161 0.000000 0.000000 0.000000 -1.113579 -17.055194 -20.133008 -2.721990 6.473776 2.482863 -7.421018 15.090679 1.151621 0.000000 0.000000 0.000000
-37.689873 77.424354 363.619629 1.373477 13.361544 18.560299 1.073114 1.830741 -18.775808 -0.496657 0.128761 -0.077314 4.073801 15.227754 6.934539 0.000000 0.000000 0.000000 -0.971097 2.453568 -1.007772 2.248585 -6.809825 1.653642 -9.977148 -7.575798 3.369106 12.990123 -9.147058 -7.648238 0.000000 0.000000 0.000000 0.000000 0.000000 0.000000 -4.472124 13.321842 7.118218 24.839759 0.179080 -14.193876 -0.705524 0.854140 -8.192040 13.107168 -1.406316 9.774647 0.000000 0.000000 0.000000 0.000000 0.000000 0.000000 -2.231914 -14.867293 -17.964443 -3.190644 -2.492554 -0.853285 -0.033633 0.799354 -0.418832 0.000000 0.000000 0.000000 -2.814698 -18.183471 -20.180250 -2.412286 6.694575 2.518447 -8.200906 16.616422 1.378653 0.000000 0.000000 0.000000
-38.111104 77.599972 364.039444 2.144146 14.406474 17.912991 0.887584 1.459597 -18.216308 -0.331629 0.251757 -0.011138 4.476926 15.173451 7.166647 0.000000 0.000000 0.000000 -0.939796 2.946264 -1.104116 2.715642 -6.198090 1.548246 -10.433766 -9.383844 2.971159 10.811182 -6.852367 -6.584257 0.000000 0.000000 0.000000 0.000000 0.000000 0.000000 -6.622992 8.716559 5.825745 29.651974 10.091698 -17.634411 2.344226 -2.232649 -7.392046 6.939176 -13.046855 16.099311 0.000000 0.000000 0.000000 0.000000 0.000000 0.000000 -2.538263 -15.086873 -17.288799 -3.357638 -3.296594 -0.902886 -1.007804 2.063940 1.420241 0.000000 0.000000 0.000000 -3.105495 -18.593121 -19.543700 -2.816912 6.360379 2.519025 -8.754078 21.319950 0.943718 0.000000 0.000000 0.000000
-38.500680 77.750389 364.619107 2.763569 14.851247 17.346925 0.760745 1.067438 -17.705787 -0.159574 0.407266 0.053878 4.360076 14.934830 7.117864 0.000000 0.000000 0.000000 -0.657102 3.844971 -1.156963 2.985135 -6.680787 1.331624 -11.206778 -10.025751 2.945550 9.034873 -4.481364 -5.631422 0.000000 0.000000 0.000000 0.000000 0.000000 0.000000 -7.713813 7.952163 5.453504 31.867769 11.213784 -18.386071 5.754442 0.217971 -8.767411 -1.858849 -18.459854 17.008867 0.000000 0.000000 0.000000 0.000000 0.000000 0.000000 -2.484145 -14.771550 -16.630828 -3.681796 -3.932497 -0.972409 -2.166357 3.513142 3.902360 0.000000 0.000000 0.000000 -2.950730 -18.520343 -18.918082 -3.502362 6.182335 2.524207 -9.651904 22.832701 1.683945 0.000000 0.000000 0.000000
-38.836855 77.849486 365.245927 3.285208 15.113158 17.013339 0.702376 0.920687 -17.427495 -0.013732 0.567755 0.104906 4.869749 14.140257 7.157173 0.000000 0.000000 0.000000 -0.566036 4.263748 -1.218575 3.007785 -7.028178 1.192874 -10.590467 -11.213689 2.247847 6.834627 -2.694122 -4.270506 0.000000 0.000000 0.000000 0.000000 0.000000 0.000000 -5.852996 10.293329 5.949630 27.068293 5.166643 -16.270107 7.316604 -4.841751 -3.391314 -9.933662 -13.201106 10.677523 0.000000 0.000000 0.000000 0.000000 0.000000 0.000000 -2.410565 -14.336374 -16.215445 -3.969693 -4.309105 -1.008824 -3.466824 5.061807 6.409152 0.000000 0.000000 0.000000 -2.902575 -18.540755 -18.591515 -4.024430 6.771435 2.642564 -9.172532 13.736827 2.706217 0.000000 0.000000 0.000000
